<svg id="Camada_1" data-name="Camada 1" xmlns="http://www.w3.org/2000/svg" xmlns:xlink="http://www.w3.org/1999/xlink" viewBox="0 0 1102 1080"><defs><style>.cls-1,.cls-3,.cls-5,.cls-6{fill:none;}.cls-10,.cls-2{fill:#fff;}.cls-2,.cls-6{stroke-miterlimit:10;stroke-width:46.31px;stroke:url(#Gradiente_sem_nome_24);}.cls-3{stroke:#d8d8d8;opacity:0.6;}.cls-3,.cls-5{stroke-linecap:round;stroke-linejoin:round;stroke-width:23.16px;}.cls-4{fill:#d8d8d8;}.cls-5{stroke:url(#Gradiente_sem_nome_24-2);}.cls-7{fill:url(#Gradiente_sem_nome_31);}.cls-8{fill:url(#Gradiente_sem_nome_31-2);}.cls-9{clip-path:url(#clip-path);}.cls-10{font-size:751.67px;font-family:Raleway-ExtraLight, Raleway;font-weight:200;letter-spacing:0em;}</style><linearGradient id="Gradiente_sem_nome_24" x1="130.78" y1="843.18" x2="970.97" y2="238.17" gradientUnits="userSpaceOnUse"><stop offset="0" stop-color="#2c4975"/><stop offset="1" stop-color="#30abd6"/></linearGradient><linearGradient id="Gradiente_sem_nome_24-2" x1="222.83" y1="777.17" x2="851.45" y2="324.51" xlink:href="#Gradiente_sem_nome_24"/><linearGradient id="Gradiente_sem_nome_31" x1="234.84" y1="754.9" x2="994.28" y2="258.9" gradientUnits="userSpaceOnUse"><stop offset="0" stop-color="#2c4975"/><stop offset="1" stop-color="#399dbf"/></linearGradient><linearGradient id="Gradiente_sem_nome_31-2" x1="595.93" y1="819.44" x2="803.8" y2="150.63" xlink:href="#Gradiente_sem_nome_31"/><clipPath id="clip-path"><circle class="cls-1" cx="551" cy="540" r="517"/></clipPath></defs><title>Prancheta 1</title><g id="LOGO"><path class="cls-2" d="M1045.37,540.67q0,9.62-.35,19.12-.94,24.13-4.14,47.6a489.38,489.38,0,0,1-37.13,132.12s0,.11-.07.14c-76.57,174-250.52,295.51-452.8,295.51-273.09,0-494.5-221.4-494.5-494.49,0-259.29,199.61-472,453.54-492.82q20.26-1.66,41-1.67a492.14,492.14,0,0,1,229.55,56.41,479.52,479.52,0,0,1,43.63,25.88c124.74,82.81,209.75,220.74,220.19,379Q1045.35,524,1045.37,540.67Z"/><path class="cls-3" d="M598.8,39.22c-257.26.53-465.63,209.23-465.63,466.63,0,257.72,208.91,466.63,466.63,466.63,190.36,0,354.1-114,426.67-277.43"/><path class="cls-4" d="M1044.25,507.52q1.1,16.46,1.12,33.15,0,9.62-.35,19.12c-35.73,185.5-198.95,325.63-394.9,325.63-222.14,0-402.21-180.07-402.21-402.21S428,81,650.12,81a401.63,401.63,0,0,1,130.31,21.59,479.52,479.52,0,0,1,43.63,25.88C954.9,190.42,1045.37,323.65,1045.37,478Q1045.37,492.89,1044.25,507.52Z"/><path class="cls-5" d="M598.65,53.15c-249.58.52-451.73,203-451.73,452.7,0,250,202.68,452.7,452.71,452.7,215.1,0,395.17-150,441.25-351.16"/><path class="cls-6" d="M1045.37,540.67q0,9.62-.35,19.12-.94,24.13-4.14,47.6a489.38,489.38,0,0,1-37.13,132.12s0,.11-.07.14c-76.57,174-250.52,295.51-452.8,295.51-273.09,0-494.5-221.4-494.5-494.49,0-259.29,199.61-472,453.54-492.82q20.26-1.66,41-1.67a492.14,492.14,0,0,1,229.55,56.41,479.52,479.52,0,0,1,43.63,25.88c124.74,82.81,209.75,220.74,220.19,379Q1045.35,524,1045.37,540.67Z"/><path class="cls-7" d="M1045.37,478q0,14.89-1.12,29.53c-15.08,199.68-181.88,357-385.42,357-213.47,0-386.54-173.07-386.54-386.54S445.36,91.45,658.83,91.45a384.53,384.53,0,0,1,165.23,37C954.9,190.42,1045.37,323.65,1045.37,478Z"/><path class="cls-8" d="M1045.37,465.8q0,13.08-1,25.94c-13.25,175.39-159.76,313.59-338.55,313.59-187.51,0-339.53-152-339.53-339.53s152-339.53,339.53-339.53A337.84,337.84,0,0,1,851,158.79C965.9,213.21,1045.37,330.24,1045.37,465.8Z"/></g><g id="B"><g class="cls-9"><text class="cls-10" transform="translate(603.97 688.04)">B</text></g></g></svg>